<?xml version="1.0" encoding="utf-8"?><svg version="1.1" id="Layer_1" xmlns="http://www.w3.org/2000/svg" xmlns:xlink="http://www.w3.org/1999/xlink" x="0px" y="0px" viewBox="0 0 122.88 114.43" style="enable-background:new 0 0 122.88 114.43" xml:space="preserve"><g><path d="M57.75,96.69c-3.67-0.85-5.98-3.19-7.34-6.24c-1.26-2.84-1.66-6.3-1.59-9.69c0.07-3.3,0.59-6.55,1.17-9.1 c0.98-4.22,2.38-8.26,4.15-12.18c1.77-3.9,3.9-7.67,6.31-11.32c0.03-0.04,0.06-0.09,0.09-0.13c7.2-9.38,15.79-18.21,25.47-26.27 c9.68-8.06,20.46-15.32,32.01-21.55c0.38-0.2,0.8-0.25,1.18-0.16c0.73-0.17,1.5,0.16,1.87,0.85c0.44,0.81,0.15,1.82-0.64,2.28 c-6.43,4.07-12.76,8.83-18.66,14.14c-5.58,5.02-10.75,10.51-15.2,16.35c-5.84,7.65-9.09,13.21-10.87,18.48 c-1.78,5.25-2.15,10.31-2.25,16.92c-0.02,1.21,0.03,2.66,0.08,4.21c0.06,2,0.13,4.19,0.08,6.41 C73.37,91.61,68.68,99.13,57.75,96.69L57.75,96.69z M3.4,111.29h116.08V58.57c0-1.82-0.6-2.36-1.35-2.36 c-1.32,0-3.15,0.81-4.47,1.41c-0.24,0.11-0.47,0.21-0.59,0.26c-7.27,3.16-8.64,2.6-12.96,0.83c-1.13-0.46-2.5-1.03-4.37-1.63 c-3.96-1.28-7.4-2.13-9.6-1.25c-2.03,0.81-3.24,3.41-3.21,9.13c0,0.83,0.03,1.7,0.06,2.56c0.03,0.82,0.05,1.63,0.06,2.48 c0.01,2.07,0.1,4.02,0.18,5.83c0.11,2.51,0.2,4.77,0.1,7c-1.38,26.97-35.4,30.8-42.58,7.14c-1.4-4.6-1.51-10.04-0.58-16.2 c0.79-5.16,2.34-10.85,4.51-17c-6.14,1.67-12.22,2.66-18.25,2.76c-7.01,0.11-13.9-0.99-20.65-3.61C5.16,56,4.6,56.27,4.18,56.69 C3.7,57.17,3.4,57.83,3.4,58.57V111.29L3.4,111.29z M122.88,114.43H0c0-16.76,0-39.1,0-55.86c0-1.67,0.68-3.19,1.78-4.28 c1.09-1.09,2.61-1.78,4.28-1.78c0.24,0,0.47,0.05,0.67,0.14c6.43,2.53,12.99,3.6,19.66,3.49c6.72-0.11,13.58-1.4,20.54-3.56 c0.9-0.27,1.85,0.23,2.12,1.12c0.12,0.37,0.1,0.75-0.03,1.09l0,0c-2.7,7.14-4.59,13.67-5.49,19.47c-0.87,5.69-0.78,10.63,0.45,14.7 c6.1,20.07,34.77,16.81,35.95-6.33c0.11-2.09,0.01-4.27-0.1-6.69c-0.08-1.81-0.17-3.74-0.18-5.96c0-0.74-0.03-1.56-0.06-2.39 c-0.03-0.85-0.06-1.71-0.06-2.66c-0.04-7.4,1.97-10.94,5.33-12.29c3.18-1.28,7.29-0.32,11.9,1.17c1.93,0.63,3.39,1.22,4.61,1.72 c3.31,1.36,4.37,1.79,10.33-0.8c0.24-0.11,0.4-0.18,0.57-0.24c1.62-0.72,3.84-1.71,5.86-1.71c2.66,0.02,4.75,1.36,4.75,5.78l0,0 C122.88,75.33,122.88,97.68,122.88,114.43L122.88,114.43z M9.38,61.43c1.25,0,2.27,1.02,2.27,2.27c0,1.25-1.02,2.27-2.27,2.27 c-1.25,0-2.27-1.02-2.27-2.27C7.11,62.44,8.13,61.43,9.38,61.43L9.38,61.43L9.38,61.43z M113.38,61.59c1.25,0,2.27,1.02,2.27,2.27 c0,1.25-1.02,2.27-2.27,2.27c-1.25,0-2.27-1.02-2.27-2.27C111.11,62.61,112.12,61.59,113.38,61.59L113.38,61.59L113.38,61.59z M100.97,62.5c1.25,0,2.27,1.02,2.27,2.27c0,1.25-1.02,2.27-2.27,2.27c-1.25,0-2.27-1.02-2.27-2.27 C98.7,63.52,99.72,62.5,100.97,62.5L100.97,62.5L100.97,62.5z M105.66,68.71c1.25,0,2.27,1.02,2.27,2.27 c0,1.25-1.02,2.27-2.27,2.27s-2.27-1.02-2.27-2.27C103.39,69.72,104.41,68.71,105.66,68.71L105.66,68.71L105.66,68.71z M94.47,67.95c1.25,0,2.27,1.02,2.27,2.27c0,1.25-1.02,2.27-2.27,2.27s-2.27-1.02-2.27-2.27C92.19,68.97,93.21,67.95,94.47,67.95 L94.47,67.95L94.47,67.95z M88.57,61.9c1.25,0,2.27,1.02,2.27,2.27s-1.02,2.27-2.27,2.27c-1.25,0-2.27-1.02-2.27-2.27 C86.29,62.91,87.31,61.9,88.57,61.9L88.57,61.9L88.57,61.9z M34.19,61.13c1.25,0,2.27,1.02,2.27,2.27c0,1.25-1.02,2.27-2.27,2.27 c-1.25,0-2.27-1.02-2.27-2.27C31.92,62.14,32.93,61.13,34.19,61.13L34.19,61.13L34.19,61.13z M21.79,62.03 c1.25,0,2.27,1.02,2.27,2.27s-1.02,2.27-2.27,2.27c-1.25,0-2.27-1.02-2.27-2.27S20.54,62.03,21.79,62.03L21.79,62.03L21.79,62.03z M26.48,68.23c1.25,0,2.27,1.02,2.27,2.27c0,1.25-1.02,2.27-2.27,2.27c-1.25,0-2.27-1.02-2.27-2.27 C24.21,69.24,25.23,68.23,26.48,68.23L26.48,68.23L26.48,68.23z M15.28,67.48c1.25,0,2.27,1.02,2.27,2.27s-1.02,2.27-2.27,2.27 c-1.25,0-2.27-1.02-2.27-2.27S14.03,67.48,15.28,67.48L15.28,67.48L15.28,67.48z"/></g></svg>