<svg xmlns="http://www.w3.org/2000/svg" shape-rendering="geometricPrecision" text-rendering="geometricPrecision" image-rendering="optimizeQuality" fill-rule="evenodd" clip-rule="evenodd" viewBox="0 0 271 512.68"><path d="M165.23 180.35c32.4-51.17 47.1-111.72 46.51-180.35-20.22 103.74-73.58 197.3-144.05 288.1C29.19 344.55-6.37 379.79.97 416.61c9.73 48.86 56.84 45.67 93.95 55.2 28.11 7.22 49.81 20.05 62.37 40.87 6.47-11.81 4.87-23.17-5.67-34.03L76.45 456.1c-94.1-28.54-37.37-91.82 3.45-141.5 32.57-39.65 61.24-84.28 85.33-134.25zm-65.9 241.86c-26.5-.24-33.77-3.94-27.49-13.4 7.24-3.5 15.67-5.84 26.1-6.13 23.56-.67 41 7.18 61 18.55 31.18 17.71 66.84 55.95 90.6 31.9 12.88-13.05 15.07-30.55 7.45-47.05-3.75-8.13-9.72-15.53-17.14-22.43 39.25 19.43 44.02 77.94-.74 88.29-5.94 1.37-12.4 1.11-19.47-1.1l-13.59-6.22c-20.45-9.61-33.48-19.01-52.16-29.09-22.41-12.08-30.51-13.11-54.56-13.32z"/></svg>