<svg id="Layer_1" data-name="Layer 1" xmlns="http://www.w3.org/2000/svg" viewBox="0 0 81.99 122.88"><defs><style>.cls-1{fill-rule:evenodd;}</style></defs><title>skincare</title><path class="cls-1" d="M30.3,3.34C38-1.85,46.68-.7,53.88,4.79a19.1,19.1,0,0,1,4.79,5.38c1.09,1.84,3,5.59-.57,6.17-1.41.22-3.87-1.69-5.77-2.31a38,38,0,0,0-7.43-1.56,36.38,36.38,0,0,0-13.13,1,41.31,41.31,0,0,0-6.18,2.22c-.92.43-2.82,1.68-3.33.07C21.06,12,27.55,5.2,30.3,3.34ZM67.52,98.68l-.09.18a6.37,6.37,0,0,1,2.75,8.36l.19.09a6.37,6.37,0,0,1,8.36-2.75l.09-.18A6.4,6.4,0,0,1,76.06,96l-.18-.09a6.36,6.36,0,0,1-8.36,2.76ZM50.94,115.21l0,.1a3.48,3.48,0,0,1,1.51,4.57l.1.05a3.48,3.48,0,0,1,4.57-1.51l0-.1a3.48,3.48,0,0,1-1.51-4.57l-.1,0a3.48,3.48,0,0,1-4.57,1.51Zm-32.06-2.53.11.22a7.6,7.6,0,0,0-3.54,9.88l-.22.1A7.1,7.1,0,0,0,11,119.13a7.11,7.11,0,0,0-5.64.22l-.11-.22A7.12,7.12,0,0,0,9,114.9a7.14,7.14,0,0,0-.21-5.65l.22-.1a7.05,7.05,0,0,0,4.23,3.74,7.07,7.07,0,0,0,5.64-.21ZM12.82,95.84l.08.18a6.37,6.37,0,0,0-3,8.29l-.18.09a6,6,0,0,0-3.56-3.15,6,6,0,0,0-4.73.18l-.09-.18A6,6,0,0,0,4.52,97.7,5.91,5.91,0,0,0,4.34,93l.19-.09A6,6,0,0,0,8.08,96a6,6,0,0,0,4.74-.18ZM29,112.78l.05.1a3.31,3.31,0,0,0-1.72,1.94,3.27,3.27,0,0,0,.1,2.59l-.1,0a3.31,3.31,0,0,0-1.94-1.72,3.27,3.27,0,0,0-2.59.1l-.05-.1a3.48,3.48,0,0,0,1.62-4.53l.1,0A3.48,3.48,0,0,0,29,112.78ZM36.1,92.1a1.13,1.13,0,0,1,.7,0,1.18,1.18,0,0,1,.8.74c.65,1.27,5.68,1.37,6.62-.06a1.17,1.17,0,0,1,2.15.91c-1.69,3.32-9.58,3.24-11-.07a1.17,1.17,0,0,1,.71-1.49ZM53.13,73l-1.35,1.67a1.16,1.16,0,0,1-1.64.19A1.18,1.18,0,0,1,50,73.19L50.9,72a1.17,1.17,0,0,1-.29-1.6,1.15,1.15,0,0,1,1.62-.31,7.54,7.54,0,0,0,4,.88,8.13,8.13,0,0,0,4.12-1.06,1.16,1.16,0,0,1,1.61.35,1.17,1.17,0,0,1-.36,1.62l-.11.07,1.05,1.16a1.17,1.17,0,0,1-1.74,1.57l-1.61-1.78a12.42,12.42,0,0,1-1.68.32v1.64a1.18,1.18,0,1,1-2.35,0v-1.6a11.05,11.05,0,0,1-2-.31ZM22.36,73,21,74.64a1.17,1.17,0,0,1-1.65.18,1.16,1.16,0,0,1-.18-1.64l.9-1.12,0,0a1.17,1.17,0,0,1,1.3-2A7.43,7.43,0,0,0,25.3,71a1.48,1.48,0,0,1,.31,0l.25,0a8.36,8.36,0,0,0,3.9-1,1.18,1.18,0,0,1,1.17,2l-.07,0,.95,1a1.18,1.18,0,0,1-1.74,1.58L28.52,73a14.38,14.38,0,0,1-1.76.32v1.58a1.18,1.18,0,0,1-2.35,0V73.31a8.38,8.38,0,0,1-2.05-.3ZM52,65.26A1.18,1.18,0,0,1,50.36,65a1.16,1.16,0,0,1,.28-1.62A11.71,11.71,0,0,1,57.4,61a12,12,0,0,1,6.91,2.36A1.17,1.17,0,0,1,63,65.27a9.65,9.65,0,0,0-5.57-1.94A9.14,9.14,0,0,0,52,65.26Zm-32.93,0A1.18,1.18,0,0,1,17.43,65a1.16,1.16,0,0,1,.28-1.62A11.73,11.73,0,0,1,24.47,61a12,12,0,0,1,6.91,2.36,1.17,1.17,0,1,1-1.32,1.93,9.69,9.69,0,0,0-5.57-1.94,9.24,9.24,0,0,0-5.43,1.93ZM4.27,59.46a1.75,1.75,0,0,1,1.07-.27,45.17,45.17,0,0,1-.41-10.3c.36-9.81,2.84-17.65,10.58-24.45,11.65-10.26,34.75-11.16,47.6-2.32a28.69,28.69,0,0,1,5.27,4.69c5.21,6,9.86,19.11,9.76,27.21a19,19,0,0,1-1,5.72c0,.19-.07.4-.13.63a10.9,10.9,0,0,1,3.33,3.21A10,10,0,0,1,82,69.76a14.46,14.46,0,0,1-2.17,6.58,23.85,23.85,0,0,1-7.06,7.18,65.92,65.92,0,0,1-11.23,18,34.57,34.57,0,0,1-13.29,9.57,21.19,21.19,0,0,1-16-.36,31.21,31.21,0,0,1-8.8-5.76A43.1,43.1,0,0,1,16,96a72.21,72.21,0,0,1-5.59-11,14.66,14.66,0,0,1-2.11-.81,13.3,13.3,0,0,1-2.61-1.57A14.18,14.18,0,0,1,1,75.7,21,21,0,0,1,.2,66.43a11.33,11.33,0,0,1,1.29-4.07,8.4,8.4,0,0,1,2.78-2.9Zm1.93,3,0,0a4.59,4.59,0,0,0-1.57,1.67,7.47,7.47,0,0,0-.87,2.77,17.26,17.26,0,0,0,.62,7.69,10.54,10.54,0,0,0,3.53,5.16,11.72,11.72,0,0,0,2,1.18,12.54,12.54,0,0,0,2.33.82,1.78,1.78,0,0,1,1.23,1.06A70.59,70.59,0,0,0,19,94.09a39.56,39.56,0,0,0,6.76,8.24,28,28,0,0,0,7.8,5.13,17.74,17.74,0,0,0,13.41.3,30.86,30.86,0,0,0,11.88-8.63A62,62,0,0,0,69.66,81.68a1.85,1.85,0,0,1,.7-.83,20.64,20.64,0,0,0,6.4-6.33,11,11,0,0,0,1.67-4.94,6.58,6.58,0,0,0-1-4,7,7,0,0,0-1.61-1.71c-8.85,20.11-6.47,3.49-6.47-7.15C61,52.83,55.57,44.35,52.8,31.62,49.49,55.86,19.72,54.81,12.24,59.23c0,7.75,2.53,19.46-3.83,8.06A29.88,29.88,0,0,1,6.2,62.43Z"/></svg>